<?xml version="1.0" standalone="no"?>
<!DOCTYPE svg PUBLIC "-//W3C//DTD SVG 20010904//EN"
 "http://www.w3.org/TR/2001/REC-SVG-20010904/DTD/svg10.dtd">
<svg version="1.0" xmlns="http://www.w3.org/2000/svg"
 width="64.000000pt" height="64.000000pt" viewBox="0 0 64.000000 64.000000"
 preserveAspectRatio="xMidYMid meet">

<g transform="translate(0.000000,64.000000) scale(0.100000,-0.100000)"
fill="#000000" stroke="none">
<path d="M276 545 c-26 -27 -29 -56 -9 -84 29 -38 74 -40 102 -5 11 15 21 35
21 45 0 47 -80 78 -114 44z"/>
<path d="M169 531 c-23 -19 -23 -19 -5 -52 15 -28 24 -34 51 -35 32 0 33 0 30
44 -4 62 -33 78 -76 43z"/>
<path d="M412 541 c-8 -5 -15 -28 -17 -53 l-2 -44 31 4 c25 3 37 12 51 39 19
34 19 35 0 49 -21 16 -44 18 -63 5z"/>
<path d="M73 485 c-39 -27 -34 -88 9 -104 22 -8 21 -9 -9 -15 -46 -10 -73 -49
-73 -102 0 -39 3 -44 28 -50 15 -3 35 -8 45 -11 12 -3 17 2 17 17 0 31 27 78
49 85 20 6 20 6 1 41 -11 18 -15 34 -10 34 6 0 10 6 10 14 0 7 7 19 15 26 20
17 19 36 -5 60 -24 24 -48 25 -77 5z"/>
<path d="M490 480 c-24 -24 -25 -43 -5 -60 8 -7 15 -19 15 -26 0 -17 43 -19
71 -4 13 7 19 21 19 44 0 59 -59 87 -100 46z"/>
<path d="M176 419 c-31 -25 -34 -61 -6 -89 20 -20 20 -20 -14 -34 -27 -11 -37
-23 -45 -53 -20 -72 -13 -86 52 -97 35 -7 37 -6 37 20 0 16 12 38 33 59 l32
32 -17 32 c-10 17 -14 31 -9 31 11 0 35 52 32 70 -3 18 -38 50 -56 50 -7 0
-24 -9 -39 -21z"/>
<path d="M402 430 c-33 -14 -37 -37 -14 -78 18 -33 19 -40 7 -69 -13 -30 -12
-33 10 -47 13 -9 30 -34 36 -56 14 -45 11 -44 62 -29 32 9 37 14 37 40 0 51
-25 95 -59 107 l-32 11 21 21 c33 33 26 76 -17 99 -25 13 -21 13 -51 1z"/>
<path d="M282 403 c5 -25 72 -24 76 0 3 14 -5 17 -38 17 -34 0 -41 -3 -38 -17z"/>
<path d="M280 350 c-50 -50 6 -120 75 -94 37 15 38 82 1 106 -20 14 -56 8 -76
-12z"/>
<path d="M497 343 c-4 -20 0 -32 13 -43 22 -19 40 -53 40 -78 0 -14 6 -19 18
-17 75 15 72 13 72 55 0 75 -33 110 -104 110 -29 0 -34 -4 -39 -27z"/>
<path d="M246 219 c-22 -17 -26 -28 -26 -74 0 -61 6 -65 105 -65 98 0 105 4
105 62 0 70 -29 98 -103 98 -40 0 -61 -6 -81 -21z"/>
</g>
</svg>
